PathFileType	3	(X/Y/Z)	E:\ViconData\BIOM9541 2025\Week 7\Wed1100\Hanif high squat 7-5 Squat 01.trc
DataRate	CameraRate	NumFrames	NumMarkers	Units	OrigDataRate	OrigDataStartFrame	OrigNumFrames
200.0	200.0	6	19	mm	200.0	220	1756	
Frame#	Time	C7			CLAV			RBAK			LASI			RASI			LPSI			RPSI			LTHI			LKNE			LTIB			LANK			LHEE			LTOE			RTHI			RKNE			RTIB			RANK			RHEE			RTOE			
		X1	Y1	Z1	X2	Y2	Z2	X3	Y3	Z3	X4	Y4	Z4	X5	Y5	Z5	X6	Y6	Z6	X7	Y7	Z7	X8	Y8	Z8	X9	Y9	Z9	X10	Y10	Z10	X11	Y11	Z11	X12	Y12	Z12	X13	Y13	Z13	X14	Y14	Z14	X15	Y15	Z15	X16	Y16	Z16	X17	Y17	Z17	X18	Y18	Z18	X19	Y19	Z19	
220	1.095	312.51248	1318.0128	-1201.3176	168.96474	1234.8763	-1190.9266	327.60699	1243.8193	-1356.0358	229.99712	871.62152	-1083.1604	216.5022	878.9567	-1339.6318	393.2596	942.0888	-1171.9941	394.0666	940.037	-1250.0494	252.18263	560.39905	-990.56299	250.43199	420.15533	-989.79712	286.1394	218.60777	-960.67773	306.64282	63.02581	-973.98291	327.90485	48.170383	-1033.173	160.56448	38.187489	-948.96246	272.86984	729.77985	-1411.3948	248.49316	419.71033	-1434.488	266.51886	331.03986	-1452.8325	303.1423	72.746643	-1434.2827	326.15045	48.708668	-1368.7064	162.24808	40.602928	-1462.0575	
221	1.1	312.42554	1316.9263	-1201.562	168.8992	1233.7144	-1191.1709	327.49783	1243.0144	-1356.3563	230.82573	870.98694	-1083.3462	217.2194	877.812	-1339.8065	393.9978	941.0795	-1172.3022	394.8555	938.9719	-1250.3556	250.18394	560.87604	-989.40186	247.41013	420.50845	-988.40778	284.73886	218.44188	-960.35022	306.43304	63.110092	-973.97559	327.76691	48.227058	-1033.2312	160.47061	38.198528	-949.20557	273.07584	729.13385	-1411.6704	246.06845	419.48361	-1435.8007	264.18893	330.81207	-1453.787	302.91666	72.634308	-1434.4247	326.12155	48.765511	-1368.8875	162.22176	40.532757	-1462.0554	
222	1.105	312.39258	1315.8202	-1201.913	168.8652	1232.418	-1191.345	327.30753	1241.903	-1356.6755	231.62027	870.08966	-1083.4873	217.7337	876.9343	-1340.4713	394.7842	940.0968	-1172.7808	392.5902	936.1976	-1247.5065	248.32556	561.30579	-988.63733	244.2794	420.80569	-986.94525	283.22562	218.37737	-959.724	306.18082	63.180836	-973.96283	327.61414	48.299171	-1033.2572	160.48448	38.131607	-949.01746	273.13919	728.81018	-1412.1907	243.55682	419.24673	-1437.1541	261.90726	330.50787	-1454.7428	302.75049	72.553871	-1434.5522	326.0614	48.728737	-1369.0049	162.24112	40.435162	-1461.9813	
223	1.11	312.34375	1314.5933	-1202.161	168.85077	1231.0765	-1191.6522	327.11533	1240.8217	-1357.0662	232.40689	869.16663	-1083.713	218.5432	875.3585	-1340.202	395.5372	938.9534	-1172.8413	395.5031	936.3818	-1250.1217	245.95242	561.70258	-987.03638	241.13521	420.99286	-985.33734	281.51016	217.73598	-959.37231	305.90274	63.261314	-973.86523	327.54904	48.51862	-1033.3389	160.43254	38.11618	-949.07281	273.2363	728.15442	-1412.5114	241.0527	419.0831	-1438.5182	259.59863	330.32959	-1455.7397	302.56036	72.588905	-1434.6493	326.01105	48.770012	-1368.9622	162.24054	40.50898	-1461.9823	
224	1.115	312.29709	1313.2598	-1202.5138	168.85605	1229.5623	-1191.8047	326.983	1239.6401	-1357.3685	233.32065	868.05035	-1083.8254	219.0478	874.3458	-1340.7424	396.2726	937.6878	-1172.8282	396.5223	935.2175	-1250.6554	243.90884	562.09967	-985.85767	238.07143	421.19849	-983.65741	279.8783	217.78712	-958.36145	305.64359	63.31657	-973.81927	327.36945	48.726406	-1033.292	160.4325	38.13279	-949.0932	273.31958	727.21558	-1412.5815	238.53619	418.95303	-1439.951	257.33859	330.08041	-1456.7577	302.367	72.734718	-1434.7156	325.93716	48.769653	-1368.8463	162.26955	40.596222	-1461.9821	
225	1.12	312.29553	1311.8168	-1202.8173	168.89197	1228.0522	-1192.021	326.81577	1238.2734	-1357.7247	234.07707	866.94061	-1083.9148	219.6524	872.8381	-1340.8772	397.0394	936.3289	-1173.2238	394.3187	931.4158	-1247.953	241.82356	562.35034	-984.59412	235.03076	421.45108	-981.79828	278.30475	217.89282	-957.36237	305.39514	63.389278	-973.76508	327.22253	48.851784	-1033.2874	160.4207	38.17244	-949.08203	273.36273	726.50525	-1412.936	236.04214	418.70709	-1441.4486	255.14066	329.78696	-1457.842	302.20456	72.765137	-1434.8372	325.86655	48.880024	-1368.7599	162.26788	40.644329	-1462.0179	
